# xmcd CD database file generated by MAGIX_Freedb v0.9beta0
# 
# Track frame offsets:
#      150
#      29175
#      55497
#      81345
#      92775
#      116092
#      145327
#      165417
#      183732
#      206087
#      223127
#      265379
#      284662
#      303384
# 
# Disc length: 4294 seconds
# 
# Revision: 0 
# Processed by: cddbd v1.4PL0 Copyright (c) Steve Scherf et al.
# Submitted via: MAGIX_Freedb v0.9beta0
# 
DISCID=e710c40e
DTITLE=Van Morrison - The Philosopher's Stone - Volume 2
DYEAR=1998
DGENRE=
TTITLE0=Van Morrison - The street only knew your name
TTITLE1=Van Morrison - John Henry
TTITLE2=Van Morrison - Western plain
TTITLE3=Van Morrison - Joyous sound
TTITLE4=Van Morrison - I have finally come to realize
TTITLE5=Van Morrison - Flamingoes fly
TTITLE6=Van Morrison - Stepping out queen part 2
TTITLE7=Van Morrison - Bright side of the road
TTITLE8=Van Morrison - Street theory
TTITLE9=Van Morrison - Real real gone
TTITLE10=Van Morrison - Showbusiness
TTITLE11=Van Morrison - For Mr. Thomas
TTITLE12=Van Morrison - Crazy Jane on God
TTITLE13=Van Morrison - Song of being a child
EXTD=
EXTT0=
EXTT1=
EXTT2=
EXTT3=
EXTT4=
EXTT5=
EXTT6=
EXTT7=
EXTT8=
EXTT9=
EXTT10=
EXTT11=
EXTT12=
EXTT13=
PLAYORDER=
